*******************************************************************************
                                 Dropping Evil
*******************************************************************************

-------------------------------------------------------------------------------
                              General Information
-------------------------------------------------------------------------------
Type.................: Movie



Video Format.........: AVI
Video Bitrate........: 2925
Resolution...........: 720 x 404
Color................: 8 bit
FPS..................: 29.97
Source...............: DVD 16x9
Original Format......: NTSC
Genre................: Horror
IMDb Rating..........: 6.8
Movie Information....: http://www.imdb.com/title/tt1220224

-------------------------------------------------------------------------------
                               Post Information
-------------------------------------------------------------------------------
Posted by............: RadioResearch
Posted on............: 2/2/2013

-------------------------------------------------------------------------------
                                 Release Notes
-------------------------------------------------------------------------------
After his friends slip him LSD on a camping trip, ultra-nerdy Nancy hallucinates 
that they are evil beings and begins to systematically hunt them down. 
Meanwhile, a mysterious corporation monitors the entire event for their own 
hidden purpose.

With Armin Shimerman and a cameo by Fred Williamson!

Enjoy!


RadioResearch

General
Complete name                            : G:AVIDropping Evil (2012)Dropping 
Evil_Title1.avi
Format                                   : AVI
Format/Info                              : Audio Video Interleave
Format profile                           : OpenDML
File size                                : 1.53 GiB
Duration                                 : 1h 14mn
Overall bit rate                         : 2 925 Kbps
Movie name                               : Dropping_Evil
Genre                                    : Horror
Writing application                      : MEncoder 5.0
Writing library                          : [= DigiArty videodll! =]

Video
ID                                       : 0
Format                                   : MPEG-4 Visual
Format profile                           : Simple@L1
Format settings, BVOP                    : No
Format settings, QPel                    : No
Format settings, GMC                     : No warppoints
Format settings, Matrix                  : Default (H.263)
Codec ID                                 : DX50
Codec ID/Hint                            : DivX 5
Duration                                 : 1h 14mn
Bit rate                                 : 2 727 Kbps
Width                                    : 720 pixels
Height                                   : 404 pixels
Display aspect ratio                     : 16:9
Frame rate                               : 29.970 fps
Color space                              : YUV
Chroma subsampling                       : 4:2:0
Bit depth                                : 8 bits
Scan type                                : Progressive
Compression mode                         : Lossy
Bits/(Pixel*Frame)                       : 0.313
Stream size                              : 1.43 GiB (93%)
Writing library                          : Lavc54.71.100

Audio
ID                                       : 1
Format                                   : AC-3
Format/Info                              : Audio Coding 3
Mode extension                           : CM (complete main)
Format settings, Endianness              : Big
Codec ID                                 : 2000
Duration                                 : 1h 14mn
Bit rate mode                            : Constant
Bit rate                                 : 192 Kbps
Channel(s)                               : 2 channels
Channel positions                        : Front: L R
Sampling rate                            : 48.0 KHz
Bit depth                                : 16 bits
Compression mode                         : Lossy
Stream size                              : 103 MiB (7%)
Alignment                                : Split accross interleaves
Interleave, duration                     : 500 ms (14.98 video frames)
Interleave, preload duration             : 500 ms




-------------------------------------------------------------------------------
Generated with Cool NFO Creator - http://fly.to/coolbeans
-------------------------------------------------------------------------------
